<?xml version="1.0" encoding="utf-8"?>
<!-- Generator: Adobe Illustrator 17.0.0, SVG Export Plug-In . SVG Version: 6.00 Build 0)  -->
<!DOCTYPE svg PUBLIC "-//W3C//DTD SVG 1.1//EN" "http://www.w3.org/Graphics/SVG/1.1/DTD/svg11.dtd" [
	<!ENTITY st0 "fill:none;stroke:#898989;stroke-width:8.6428;stroke-miterlimit:10;">
	<!ENTITY st1 "fill:none;stroke:#898989;stroke-width:8.4077;stroke-miterlimit:10;">
	<!ENTITY st2 "fill:none;stroke:#898989;stroke-width:6.565;stroke-miterlimit:10;">
	<!ENTITY st3 "fill:#4DFFFF;">
	<!ENTITY st4 "fill:#FFE100;">
	<!ENTITY st5 "fill:#717071;">
]>
<svg version="1.1" id="圖層_1" xmlns="http://www.w3.org/2000/svg" xmlns:xlink="http://www.w3.org/1999/xlink" x="0px" y="0px"
	 width="406.287px" height="128px" viewBox="0 0 406.287 128" style="enable-background:new 0 0 406.287 128;" xml:space="preserve"
	>
<g>
	<path style="&st0;" d="M-194.883-93.716c1.941,0,3.516-1.543,3.516-3.448v-110.785c0-1.904-1.575-3.446-3.516-3.446"/>
	<path style="&st0;" d="M-254.451-93.716h-21.881c-1.941,0-3.516-1.543-3.516-3.446v-110.785c0-1.905,1.573-3.448,3.516-3.448
		h21.881h74.96c1.941,0,3.516,1.543,3.516,3.446v110.785c0,1.905-1.575,3.448-3.516,3.448h-74.958"/>
	<path style="&st0;" d="M-220.149-198.888h-43.884c-1.033,0-1.872,0.821-1.872,1.837l-0.008,15.603h60.916
		c1.212-0.452,1.235-0.906,1.235-1.369c0-8.242-6.324-15.028-14.474-15.959L-220.149-198.888z"/>
</g>
<g>
	<path style="&st1;" d="M-224.194,20.384l-94.226-0.278l-15.616-55.164l95.723,47.885c0,0,11.72,3.043,12.512,7.069l0.151,0.682
		c-0.674,4.168-12.652,7.362-12.652,7.362l-95.733,47.607l15.616-55.164h77.455"/>
	<path style="&st1;" d="M-324.95,44.345"/>
	<polyline style="&st1;" points="-322.169,33.579 -335.504,20.245 -322.169,6.91 	"/>
</g>
<g>
	<ellipse style="&st2;" cx="-78.093" cy="-142.496" rx="60.237" ry="59.073"/>
	<ellipse style="&st2;" cx="-78.093" cy="-142.496" rx="52.923" ry="51.9"/>
	<polyline style="&st2;" points="-76.801,-171.61 -76.801,-142.496 -42.165,-142.496 	"/>
</g>
<g>
	<g>
		<g>
			<g>
				<path style="&st3;" d="M114.307,106.23h-92.33V94.748c0,0,59.762,0,82.583,0C115.252,94.748,114.307,106.23,114.307,106.23z"/>
			</g>
		</g>
		<g>
			<g>
				<rect x="26.878" y="70.419" style="&st3;" width="82.529" height="11.482"/>
			</g>
		</g>
		<g>
			<g>
				<rect x="26.878" y="46.093" style="&st3;" width="82.529" height="11.481"/>
			</g>
		</g>
		<g>
			<g>
				<path style="&st4;" d="M111.857,33.252c0,0-57.864,0-78.817,0c-9.05,0-8.613-11.482-8.613-11.482h87.43V33.252z"/>
			</g>
		</g>
		<g>
			<g>
				<polygon style="&st4;" points="111.857,33.252 26.878,57.578 26.878,46.093 111.857,21.77 				"/>
			</g>
		</g>
		<g>
			<g>
				<polygon style="&st4;" points="109.406,57.578 26.878,81.904 26.878,70.419 109.406,46.093 				"/>
			</g>
		</g>
		<g>
			<g>
				<polygon style="&st4;" points="109.406,81.904 21.977,106.23 21.977,94.745 109.406,70.419 				"/>
			</g>
		</g>
	</g>
</g>
<g>
	<g>
		<path style="&st5;" d="M161.548,577.207h-7.47v-58.081h18.061c13.489,0,18.729,7.357,18.729,15.83
			c0,12.263-8.695,17.279-16.834,17.279h-12.485V577.207z M171.804,545.547c7.357,0,11.26-3.345,11.26-10.033
			c0-7.915-5.128-9.699-11.26-9.699h-10.256v19.732H171.804z"/>
		<path style="&st5;" d="M209.374,561.377l-5.463,17.279l-7.357-2.675l18.282-56.855h9.588l18.282,56.855l-7.357,2.675
			l-5.352-17.279H209.374z M219.63,527.822l-8.25,26.867h16.499L219.63,527.822z"/>
		<path style="&st5;" d="M261.883,577.207h-7.47v-58.081h18.061c13.489,0,18.729,7.357,18.729,15.83
			c0,12.263-8.695,17.279-16.834,17.279h-12.485V577.207z M272.138,545.547c7.357,0,11.26-3.345,11.26-10.033
			c0-7.915-5.128-9.699-11.26-9.699h-10.256v19.732H272.138z"/>
		<path style="&st5;" d="M304.023,519.126h36.23v6.688h-28.762v17.392h23.745v6.688h-23.745v20.624h28.762v6.688h-36.23V519.126z"/>
		<path style="&st5;" d="M353.299,519.126h19.732c9.699,0,17.391,4.57,17.391,15.83c0,7.135-4.793,14.158-11.816,16.276
			l14.27,23.522l-6.466,3.901l-14.827-26.31h-10.813v24.86h-7.47V519.126z M370.579,545.658c7.246,0,12.039-4.125,12.039-10.702
			c0-5.239-3.121-9.142-9.81-9.142h-12.04v19.844H370.579z"/>
	</g>
</g>
<g>
	<g>
		<path style="&st5;" d="M158.502,44.949h-16.054V38.26h39.241v6.689h-15.719v51.393h-7.469V44.949z"/>
		<path style="&st5;" d="M201.981,80.512l-5.463,17.279l-7.357-2.675l18.282-56.855h9.588l18.282,56.855l-7.357,2.675l-5.352-17.279
			H201.981z M212.237,46.956l-8.25,26.867h16.499L212.237,46.956z"/>
		<path style="&st5;" d="M242.561,96.342v-6.689h6.02V44.949h-6.02V38.26h18.283c14.715,0,21.069,5.574,21.069,15.496
			c0,5.017-2.118,9.476-6.577,11.928c6.354,2.007,9.922,7.469,9.922,14.046c0,10.479-6.912,16.611-19.063,16.611H242.561z
			 M264.411,63.121c6.466,0,9.698-4.125,9.698-9.364c0-6.912-4.905-8.807-10.145-8.807h-7.915v18.171H264.411z M264.745,89.653
			c6.577,0,12.709-1.449,12.709-9.364c0-5.797-3.79-10.479-10.925-10.479H256.05v19.843H264.745z"/>
		<path style="&st5;" d="M298.079,38.26h7.469v51.393h30.435v6.689h-37.903V38.26z"/>
		<path style="&st5;" d="M346.798,38.26h36.23v6.689h-28.762V62.34h23.745v6.688h-23.745v20.624h28.762v6.689h-36.23V38.26z"/>
	</g>
</g>
<g>
	<g>
		<path style="&st5;" d="M155.269,364.828c1.449,7.135,4.905,12.375,12.709,12.375c6.131,0,10.925-3.344,10.925-9.81
			c0-7.135-6.02-8.918-11.705-11.26c-8.473-3.567-16.5-5.797-16.5-16.722c0-9.81,7.916-15.273,17.057-15.273
			c9.699,0,15.385,5.574,17.726,14.604l-7.135,2.118c-1.338-5.686-4.348-9.699-10.702-9.699c-4.794,0-9.476,2.453-9.476,7.692
			c0,5.462,3.345,7.023,7.804,9.03l12.374,5.462c5.24,2.898,8.026,7.581,8.026,13.601c0,11.037-7.691,17.28-18.394,17.28
			c-10.814,0-17.614-6.912-19.398-17.28L155.269,364.828z"/>
		<path style="&st5;" d="M214.02,331.83h-16.054v-6.689h39.241v6.689h-15.719v51.393h-7.469V331.83z"/>
		<path style="&st5;" d="M288.38,354.238c0,4.682-0.335,29.988-20.624,29.988c-9.364,0-20.624-6.689-20.624-29.988
			c0-23.188,11.036-30.1,20.624-30.1C277.009,324.137,288.38,330.826,288.38,354.238z M254.935,354.238
			c0,8.473,1.561,22.965,12.82,22.965s12.82-14.492,12.82-22.965c0-8.584-1.561-23.077-12.82-23.077
			S254.935,345.654,254.935,354.238z"/>
		<path style="&st5;" d="M301.089,325.141h19.732c9.699,0,17.391,4.571,17.391,15.831c0,7.135-4.793,14.158-11.816,16.276
			l14.27,23.522l-6.466,3.902l-14.827-26.31h-10.813v24.86h-7.47V325.141z M318.369,351.674c7.246,0,12.039-4.125,12.039-10.702
			c0-5.24-3.121-9.142-9.81-9.142h-12.04v19.844H318.369z"/>
		<path style="&st5;" d="M352.149,325.141h36.23v6.689h-28.762v17.391h23.745v6.688h-23.745v20.624h28.762v6.689h-36.23V325.141z"/>
	</g>
</g>
<g>
	<g>
		<path style="&st5;" d="M147.577,499.417v-6.688h6.021v-44.704h-6.021v-6.688h18.283c14.715,0,21.069,5.574,21.069,15.496
			c0,5.017-2.118,9.476-6.577,11.928c6.354,2.007,9.922,7.47,9.922,14.047c0,10.479-6.912,16.61-19.063,16.61H147.577z
			 M169.428,466.197c6.466,0,9.698-4.125,9.698-9.364c0-6.912-4.905-8.808-10.145-8.808h-7.915v18.172H169.428z M169.762,492.729
			c6.577,0,12.709-1.449,12.709-9.364c0-5.797-3.79-10.479-10.925-10.479h-10.479v19.844H169.762z"/>
		<path style="&st5;" d="M238.212,470.433c0,4.682-0.335,29.988-20.624,29.988c-9.364,0-20.624-6.689-20.624-29.988
			c0-23.188,11.036-30.101,20.624-30.101C226.841,440.332,238.212,447.022,238.212,470.433z M204.767,470.433
			c0,8.473,1.561,22.965,12.82,22.965s12.82-14.492,12.82-22.965c0-8.584-1.561-23.077-12.82-23.077
			S204.767,461.849,204.767,470.433z"/>
		<path style="&st5;" d="M288.38,470.433c0,4.682-0.335,29.988-20.624,29.988c-9.364,0-20.624-6.689-20.624-29.988
			c0-23.188,11.036-30.101,20.624-30.101C277.009,440.332,288.38,447.022,288.38,470.433z M254.935,470.433
			c0,8.473,1.561,22.965,12.82,22.965s12.82-14.492,12.82-22.965c0-8.584-1.561-23.077-12.82-23.077
			S254.935,461.849,254.935,470.433z"/>
		<path style="&st5;" d="M310.008,466.085h2.787l19.955-26.198l5.686,4.459l-19.286,24.414l22.63,27.313l-5.686,4.793l-23.522-28.65
			h-2.563v27.201h-7.47v-58.081h7.47V466.085z"/>
		<path style="&st5;" d="M355.939,481.023c1.449,7.135,4.905,12.375,12.709,12.375c6.131,0,10.925-3.345,10.925-9.811
			c0-7.135-6.02-8.918-11.705-11.26c-8.473-3.567-16.5-5.797-16.5-16.722c0-9.811,7.916-15.273,17.057-15.273
			c9.699,0,15.385,5.574,17.726,14.604l-7.135,2.118c-1.338-5.686-4.348-9.699-10.702-9.699c-4.794,0-9.476,2.453-9.476,7.692
			c0,5.463,3.345,7.023,7.804,9.03l12.374,5.462c5.24,2.898,8.026,7.581,8.026,13.601c0,11.037-7.691,17.28-18.394,17.28
			c-10.814,0-17.614-6.912-19.398-17.28L355.939,481.023z"/>
	</g>
</g>
</svg>
